/* XPM */
static char * egg_xpm[] = {
"64 64 10 1",
" 	c None",
".	c #5A5241",
"+	c #FFFFFF",
"@	c #D5CDA4",
"#	c #181818",
"$	c #FFF6DE",
"%	c #9CCD83",
"&	c #CDE6B4",
"*	c #EEE6BD",
"=	c #83B46A",
"                                                                ",
"                                                                ",
"                                                                ",
"                                                                ",
"                                                                ",
"                                                                ",
"                                                                ",
"                                                                ",
"                                                                ",
"                                                                ",
"                                                                ",
"                                                                ",
"                                                                ",
"                                                                ",
"                                                                ",
"                                                                ",
"                                                                ",
"                              ....                              ",
"                            ..++++..                            ",
"                          ..++++++++..                          ",
"                         .@++++++++++@.                         ",
"                        #$$++++++++++$$#                        ",
"                       #$$$$++++++++$$$$#                       ",
"                      #$$$$$$$++++$$$$$$$#                      ",
"                     .@$$$$$$$$$$$$$$$$$$@.                     ",
"                     #$$$$$$$$$$$$$$$$$$$$#                     ",
"                    #%%&$$$$$$$$$$$$$$$$$$*.                    ",
"                    #%%%%$$$$$$$$$$$$$$$$$$#                    ",
"                   .%%%%%%$$$$$$$$$$$$$$$$$*.                   ",
"                   #%%%%%%%$$$$$$%%&$$$$$$$$#                   ",
"                   #%%%%%%%$$$$$%%%%$$$$$$$$#                   ",
"                  .%%%%%%%&$$$$$%%%%$$$&%&$$*.                  ",
"                  #%%%%%%%$$$$$$&%%$$$%%%%&$*#                  ",
"                  #*&%%%&$$$$$$$$$$$$&%%%%%$*#                  ",
"                  #*$$$$$$$$$$$$$$$$$%%%%%%&*#                  ",
"                  #@$$$$$$$$$$$$$$$$&%%%%%%%@#                  ",
"                   #$$$$$$$$$$$$$$$$&%%%%%%%#                   ",
"                   #*$$$$$$$$$$$$$$$&%%%%%%=#                   ",
"                   #@**$$$$$$$$$$$$$$%%%%==@#                   ",
"                    #@@@@**$$$$$$$$$$*=====#                    ",
"                    #@@@===@@******@@@@===@#                    ",
"                     #@=====@@@@@@@@@@@@@@#                     ",
"                      #======@@@@@@@@@@@@#                      ",
"                       #=====@@@@@@@@@@@#                       ",
"                        ##===@@@@@@@@@##                        ",
"                          ##@@@@@@@@##                          ",
"                            ########                            ",
"                                                                ",
"                                                                ",
"                                                                ",
"                                                                ",
"                                                                ",
"                                                                ",
"                                                                ",
"                                                                ",
"                                                                ",
"                                                                ",
"                                                                ",
"                                                                ",
"                                                                ",
"                                                                ",
"                                                                ",
"                                                                ",
"                                                                "};
