/* XPM */
static char * exit_xpm[] = {
"64 64 600 2",
"  	c #B8F078",
". 	c #E6E5E5",
"+ 	c #E5E2E1",
"@ 	c #E8E7E7",
"# 	c #E8E7E6",
"$ 	c #B6B0AE",
"% 	c #6C5953",
"& 	c #D7D5D5",
"* 	c #B0F078",
"= 	c #BEB9B7",
"- 	c #948580",
"; 	c #775B52",
"> 	c #775B51",
", 	c #8C7F7B",
"' 	c #7C635C",
") 	c #634133",
"! 	c #877F7C",
"~ 	c #C7C4C4",
"{ 	c #C0F080",
"] 	c #9C8B86",
"^ 	c #6C422F",
"/ 	c #704736",
"( 	c #704838",
"_ 	c #6F4737",
": 	c #664234",
"< 	c #49342B",
"[ 	c #593D31",
"} 	c #DCDBDA",
"| 	c #E0F888",
"1 	c #BFB6B3",
"2 	c #6F4838",
"3 	c #614033",
"4 	c #433129",
"5 	c #544741",
"6 	c #EBE8E7",
"7 	c #76564B",
"8 	c #603F30",
"9 	c #664335",
"0 	c #6A4536",
"a 	c #6E4737",
"b 	c #644133",
"c 	c #4A342A",
"d 	c #A09D9C",
"e 	c #D2CCCA",
"f 	c #68412F",
"g 	c #B57F5F",
"h 	c #8C5F44",
"i 	c #734B39",
"j 	c #553A2C",
"k 	c #7A4B2B",
"l 	c #73482F",
"m 	c #55392B",
"n 	c #56392C",
"o 	c #AEA29D",
"p 	c #D0CDCD",
"q 	c #8C7A72",
"r 	c #E4AF99",
"s 	c #D2926A",
"t 	c #D69C7C",
"u 	c #CF997D",
"v 	c #BE8463",
"w 	c #80655A",
"x 	c #915B35",
"y 	c #6E4830",
"z 	c #B17B56",
"A 	c #D6D2D0",
"B 	c #CD9A80",
"C 	c #AF8A7B",
"D 	c #CD977A",
"E 	c #F9C9B8",
"F 	c #EEC1B1",
"G 	c #817A7C",
"H 	c #B5784B",
"I 	c #925D37",
"J 	c #B69787",
"K 	c #DCD3CF",
"L 	c #B48162",
"M 	c #BF978A",
"N 	c #AF7C61",
"O 	c #F5C3B2",
"P 	c #F8C8B8",
"Q 	c #D2A28E",
"R 	c #DD9866",
"S 	c #A16B42",
"T 	c #7D7472",
"U 	c #C8BAB4",
"V 	c #C8957D",
"W 	c #EDBBA7",
"X 	c #ECB7A1",
"Y 	c #EFBBA6",
"Z 	c #EFB9A0",
"` 	c #D99A72",
" .	c #604434",
"..	c #B8B7B6",
"+.	c #D1D0CF",
"@.	c #8A7064",
"#.	c #D6A38C",
"$.	c #E7B096",
"%.	c #DDA489",
"&.	c #D29B7D",
"*.	c #875732",
"=.	c #9E928B",
"-.	c #E1E1E0",
";.	c #BBB7B5",
">.	c #906236",
",.	c #9C786D",
"'.	c #BE8B72",
").	c #7A696E",
"!.	c #B2914D",
"~.	c #BB8E5A",
"{.	c #EBE9E8",
"].	c #D8CBC5",
"^.	c #BB8F5E",
"/.	c #ABACB4",
"(.	c #CDCCCE",
"_.	c #9CA4B1",
":.	c #B5864F",
"<.	c #9A4A33",
"[.	c #D4BFBF",
"}.	c #E6E0DE",
"|.	c #BFAAA3",
"1.	c #CFCDCE",
"2.	c #EFE7E8",
"3.	c #B3565C",
"4.	c #CAC8CC",
"5.	c #CACED3",
"6.	c #D5D7DB",
"7.	c #C1C0C7",
"8.	c #A9656C",
"9.	c #BA3A41",
"0.	c #B73C42",
"a.	c #D18D8F",
"b.	c #CFB0A2",
"c.	c #C99071",
"d.	c #C79174",
"e.	c #716A6D",
"f.	c #CD8F90",
"g.	c #CA535B",
"h.	c #DDDEE0",
"i.	c #CED1D6",
"j.	c #E9EBEC",
"k.	c #E0CACD",
"l.	c #BD8D97",
"m.	c #A34F5D",
"n.	c #D6464E",
"o.	c #D3454D",
"p.	c #DDC1C2",
"q.	c #E6E2E1",
"r.	c #C08462",
"s.	c #D39672",
"t.	c #826051",
"u.	c #443B41",
"v.	c #E5E5E5",
"w.	c #D6D2D5",
"x.	c #BB4B51",
"y.	c #A9434B",
"z.	c #BBBFC5",
"A.	c #D4D7DA",
"B.	c #BFC0C5",
"C.	c #C1717A",
"D.	c #C77E88",
"E.	c #B63840",
"F.	c #BF383F",
"G.	c #C13941",
"H.	c #C06A6D",
"I.	c #E4E1E0",
"J.	c #B47C5F",
"K.	c #A87253",
"L.	c #3D2F2E",
"M.	c #4F4D53",
"N.	c #A5A6AA",
"O.	c #B6B8BF",
"P.	c #A64D53",
"Q.	c #8D3332",
"R.	c #56535C",
"S.	c #66646B",
"T.	c #494248",
"U.	c #A04645",
"V.	c #AD7782",
"W.	c #B0333B",
"X.	c #9A3D47",
"Y.	c #AE9399",
"Z.	c #B2AAB1",
"`.	c #CACACE",
" +	c #C49F8E",
".+	c #9F6743",
"++	c #2C1E1C",
"@+	c #9C9FA6",
"#+	c #B3998F",
"$+	c #D6CCC8",
"%+	c #E7E8E9",
"&+	c #8C8891",
"*+	c #B0703C",
"=+	c #956F2C",
"-+	c #453C43",
";+	c #40373C",
">+	c #3C2F2D",
",+	c #A97E2C",
"'+	c #C4882D",
")+	c #96482D",
"!+	c #838590",
"~+	c #E3E2E3",
"{+	c #CDCACC",
"]+	c #A1A4AC",
"^+	c #DFDAD9",
"/+	c #BAB9B9",
"(+	c #817A7F",
"_+	c #D49770",
":+	c #DBA58B",
"<+	c #C3A599",
"[+	c #CCC1BD",
"}+	c #BB8972",
"|+	c #8C5F40",
"1+	c #5B4236",
"2+	c #40363A",
"3+	c #3F3436",
"4+	c #4A3D3F",
"5+	c #8E5F2A",
"6+	c #5E432F",
"7+	c #9B662D",
"8+	c #828287",
"9+	c #C79A84",
"0+	c #E0AC96",
"a+	c #A5928D",
"b+	c #E2E1E1",
"c+	c #BCAEA9",
"d+	c #C99780",
"e+	c #F0BDA9",
"f+	c #DBA891",
"g+	c #9F6F46",
"h+	c #7B573F",
"i+	c #393036",
"j+	c #473F46",
"k+	c #6E5041",
"l+	c #82593B",
"m+	c #544D4D",
"n+	c #C2BEBD",
"o+	c #EEEDEE",
"p+	c #C69D8B",
"q+	c #F8C7B6",
"r+	c #D8B8AB",
"s+	c #CDCAC9",
"t+	c #B38C7A",
"u+	c #E3B099",
"v+	c #E2AD96",
"w+	c #674736",
"x+	c #8E6138",
"y+	c #3A3136",
"z+	c #443C42",
"A+	c #7F5736",
"B+	c #563C31",
"C+	c #524140",
"D+	c #FFFFFF",
"E+	c #DFCFCA",
"F+	c #EDBBA9",
"G+	c #C5957B",
"H+	c #C2B7B3",
"I+	c #906150",
"J+	c #452621",
"K+	c #5F402E",
"L+	c #3B3535",
"M+	c #502D2F",
"N+	c #592A25",
"O+	c #953033",
"P+	c #8D1C20",
"Q+	c #8E8A8A",
"R+	c #FEFEFE",
"S+	c #D9D1CE",
"T+	c #EDBBA8",
"U+	c #B88970",
"V+	c #CBB4B4",
"W+	c #673138",
"X+	c #9A6B76",
"Y+	c #C7C9CD",
"Z+	c #A47480",
"`+	c #99343A",
" @	c #A2363D",
".@	c #882226",
"+@	c #6B6666",
"@@	c #FAFAFA",
"#@	c #D9D0CE",
"$@	c #F0C1B2",
"%@	c #B6988D",
"&@	c #B2AEAE",
"*@	c #3F2727",
"=@	c #805C69",
"-@	c #9DA2AB",
";@	c #6A6270",
">@	c #52262A",
",@	c #3E2E2D",
"'@	c #3B2A28",
")@	c #373031",
"!@	c #BDBDBD",
"~@	c #DDD2CF",
"{@	c #F0C0AF",
"]@	c #D1C2BD",
"^@	c #C2C2C5",
"/@	c #423C3F",
"(@	c #382E2E",
"_@	c #3F363C",
":@	c #352F35",
"<@	c #3F3840",
"[@	c #474047",
"}@	c #484048",
"|@	c #43393E",
"1@	c #322622",
"2@	c #5C5A5A",
"3@	c #DCC9C2",
"4@	c #E8B39D",
"5@	c #C7BAB3",
"6@	c #7C7F86",
"7@	c #3A3033",
"8@	c #463D44",
"9@	c #443D44",
"0@	c #362C2E",
"a@	c #413940",
"b@	c #484047",
"c@	c #3B3236",
"d@	c #251D1C",
"e@	c #9B8F8C",
"f@	c #BBA8A3",
"g@	c #BBBABC",
"h@	c #BFBFC2",
"i@	c #696E76",
"j@	c #40373A",
"k@	c #2A201E",
"l@	c #2E2526",
"m@	c #433737",
"n@	c #453D44",
"o@	c #322724",
"p@	c #7D838E",
"q@	c #C3C5C8",
"r@	c #A9ACB3",
"s@	c #A9A8AB",
"t@	c #45434C",
"u@	c #372D30",
"v@	c #231A19",
"w@	c #3B3031",
"x@	c #392E2F",
"y@	c #513B39",
"z@	c #453436",
"A@	c #959597",
"B@	c #B9B9BA",
"C@	c #403A41",
"D@	c #2F2525",
"E@	c #201818",
"F@	c #3A2F2F",
"G@	c #473F47",
"H@	c #583D31",
"I@	c #6B4C44",
"J@	c #CC9379",
"K@	c #CA9072",
"L@	c #948681",
"M@	c #484046",
"N@	c #3D3336",
"O@	c #342A2B",
"P@	c #7A7978",
"Q@	c #4C4342",
"R@	c #443A3D",
"S@	c #443D45",
"T@	c #7A533C",
"U@	c #985D4C",
"V@	c #D2605C",
"W@	c #C5655E",
"X@	c #916966",
"Y@	c #E2E0E0",
"Z@	c #4A3B39",
"`@	c #473E45",
" #	c #3A3032",
".#	c #3B3133",
"+#	c #867C79",
"@#	c #473F3F",
"##	c #41373B",
"$#	c #473A3D",
"%#	c #722321",
"&#	c #8C1D23",
"*#	c #671B1E",
"=#	c #B0AEAE",
"-#	c #C0B1A8",
";#	c #8A6122",
">#	c #47352D",
",#	c #47352C",
"'#	c #644529",
")#	c #875B22",
"!#	c #A56626",
"~#	c #6F4829",
"{#	c #422E1F",
"]#	c #382D2C",
"^#	c #3B3032",
"/#	c #2C1C1A",
"(#	c #38201A",
"_#	c #563724",
":#	c #B7B2B0",
"<#	c #BCAFA2",
"[#	c #D7AB2C",
"}#	c #CFA530",
"|#	c #CFA630",
"1#	c #DDBA3C",
"2#	c #E1B534",
"3#	c #BD7716",
"4#	c #A47227",
"5#	c #CDA22F",
"6#	c #B08B30",
"7#	c #A07620",
"8#	c #A17723",
"9#	c #BB9432",
"0#	c #C6831B",
"a#	c #A88772",
"b#	c #E1DFDD",
"c#	c #B5936C",
"d#	c #D3A93A",
"e#	c #D7B13B",
"f#	c #CA9631",
"g#	c #B38041",
"h#	c #BEB1AA",
"i#	c #AA8D75",
"j#	c #D8B23E",
"k#	c #E5C33E",
"l#	c #E6C43E",
"m#	c #E6C43D",
"n#	c #E0B93A",
"o#	c #C1822C",
"p#	c #A48C81",
"q#	c #D0CBC9",
"r#	c #D4976E",
"s#	c #C58452",
"t#	c #DA9560",
"u#	c #AC8A79",
"v#	c #D1C8C2",
"w#	c #B39165",
"x#	c #CF9746",
"y#	c #CA8F2E",
"z#	c #BB8243",
"A#	c #97867E",
"B#	c #C8967C",
"C#	c #EEB69C",
"D#	c #EDAC83",
"E#	c #C79270",
"F#	c #CFC6C2",
"G#	c #E5AE94",
"H#	c #D99C79",
"I#	c #EAAF91",
"J#	c #B69A8D",
"K#	c #BF9179",
"L#	c #F7C6B4",
"M#	c #F0B799",
"N#	c #DC9B6C",
"O#	c #E7E4E3",
"P#	c #D5CBC7",
"Q#	c #EBB69D",
"R#	c #F0BAA2",
"S#	c #F0B697",
"T#	c #C18963",
"U#	c #B98E76",
"V#	c #F7C6B5",
"W#	c #F2B89B",
"X#	c #C59171",
"Y#	c #CD9C87",
"Z#	c #F9C8B8",
"`#	c #F5C1AC",
" $	c #D69568",
".$	c #E9E8E8",
"+$	c #B98F76",
"@$	c #EAAA84",
"#$	c #AF8B78",
"$$	c #BFA79E",
"%$	c #F5C4B3",
"&$	c #F6C3AF",
"*$	c #D6976A",
"=$	c #E8E6E6",
"-$	c #B88D74",
";$	c #E3A277",
">$	c #957E73",
",$	c #D9D2CF",
"'$	c #E8B8A6",
")$	c #E4A47A",
"!$	c #D4C7C1",
"~$	c #A2794C",
"{$	c #DEAA7C",
"]$	c #C58650",
"^$	c #74625B",
"/$	c #E7E7E7",
"($	c #D8A791",
"_$	c #F6C5B4",
":$	c #E8A67B",
"<$	c #C6B3AA",
"[$	c #BFBEBF",
"}$	c #987E5A",
"|$	c #C6A13F",
"1$	c #AD732E",
"2$	c #5A4038",
"3$	c #B1B0B0",
"4$	c #B59480",
"5$	c #D2A05F",
"6$	c #CA883D",
"7$	c #93643D",
"8$	c #C4C3C3",
"9$	c #BFC1C6",
"0$	c #D6D7DB",
"a$	c #696871",
"b$	c #422A30",
"c$	c #402D2D",
"d$	c #CACACA",
"e$	c #745949",
"f$	c #C79C51",
"g$	c #B59370",
"h$	c #766360",
"i$	c #6C6968",
"j$	c #CCCFD4",
"k$	c #E3E4E6",
"l$	c #815A5F",
"m$	c #631E1E",
"n$	c #7C6161",
"o$	c #827E7F",
"p$	c #95959A",
"q$	c #DDDFE1",
"r$	c #94969B",
"s$	c #B7B6B6",
"t$	c #9C9FA5",
"u$	c #8A8992",
"v$	c #A24049",
"w$	c #1D1B19",
"x$	c #726D6D",
"y$	c #DCDBDB",
"z$	c #917A7E",
"A$	c #DCDCDF",
"B$	c #8D7B85",
"C$	c #ADABAB",
"D$	c #EDE8E7",
"E$	c #B38C8E",
"F$	c #BFB2B6",
"G$	c #D7D7DA",
"H$	c #97858D",
"I$	c #5F2222",
"J$	c #864041",
"K$	c #E4E4E4",
"L$	c #795E5F",
"M$	c #B9B2B9",
"N$	c #C1B4B8",
"O$	c #838387",
"P$	c #E6E6E6",
"Q$	c #B3ACB1",
"R$	c #CC686F",
"S$	c #D1484F",
"T$	c #B34A50",
"U$	c #ACA2AA",
"V$	c #CBCDD2",
"W$	c #783848",
"X$	c #86484F",
"Y$	c #E3E2E2",
"Z$	c #979398",
"`$	c #CDCCD1",
" %	c #A397A1",
".%	c #867282",
"+%	c #9E989B",
"@%	c #CACBCE",
"#%	c #CDCBCF",
"$%	c #E6C0C1",
"%%	c #D8BDBE",
"&%	c #CEC9CD",
"*%	c #979EAB",
"=%	c #757E8E",
"-%	c #716974",
";%	c #8A8A8B",
">%	c #84707A",
",%	c #C2515E",
"'%	c #CE4049",
")%	c #A72A32",
"!%	c #765767",
"~%	c #BABABB",
"{%	c #CBCBCD",
"]%	c #979CA5",
"^%	c #BEC2C8",
"/%	c #A2A8B3",
"(%	c #707686",
"_%	c #76757A",
":%	c #CACACB",
"<%	c #E8E8E8",
"[%	c #D1D1D1",
"}%	c #AFB3BC",
"|%	c #D2BDC1",
"1%	c #D3B6BA",
"2%	c #CEBDC1",
"3%	c #909AA7",
"4%	c #82868F",
"5%	c #DEDDDE",
"6%	c #B8B9BC",
"7%	c #CDCCCD",
"8%	c #D1D0D1",
"9%	c #9297A1",
"0%	c #D2D6DA",
"a%	c #D7DBDE",
"b%	c #C8CBD2",
"c%	c #7C899B",
"d%	c #82868E",
"e%	c #89898B",
"f%	c #666D7B",
"g%	c #6D798B",
"h%	c #677286",
"i%	c #6D7079",
"                                                                                                                                ",
"                                                                                                                                ",
"                                                                                                                                ",
"                                                                                                                                ",
"                                                                                                                                ",
"                                                                                                                                ",
"                                                                                                                                ",
"                                                                        . +                                                     ",
"                                                              @ #   @ $ % &                                                     ",
"                              * * * * * * * * * * * * * * = - ; > , ' ) ! ~                                                     ",
"                              * * * { * { * * * * * * * ] ^ / ( ( _ : < [ }                                                     ",
"                              * * { * | * * * * * { * 1 _ ( ( ( ( 2 3 4 5                                                       ",
"                              * * { | | { * * * { * 6 7 8 ( 9 0 a : b c d                                                       ",
"                              * * * { | | { { * * | e f g h i j k l m n o                                                       ",
"                              * * * * { | { { * * | p q r s t u v w x y z                                                       ",
"                              * * * * * * * * { { | * A B C D E F G H I J                                                       ",
"                              * * * * * * * * * * * * K L M N O P Q R S T                                                       ",
"                                                        U V W X Y Z `  ...                                                      ",
"                                                        +.@.#.$.%.&.*.=.-.                                                      ",
"                                                          ;.>.,.'.).!.~.{.                                                      ",
"                                                          ].^./.(._.:.<.[.                                                      ",
"                                        }.|.1.          2.3.4.5.6.7.8.9.0.a.                                                    ",
"                                      b.c.d.e.          f.g.h.i.j.k.l.m.n.o.p.                                                  ",
"                                    q.r.s.t.u.v.      w.x.y.z.A.B.C.D.E.F.G.H.                                                  ",
"                                    I.J.K.L.M.N.      O.P.Q.R.S.T.U.V.W.X.Y.Z.`.                                                ",
"                                       +.+++@+#+$+  %+&+*+=+-+;+>+,+'+)+!+~+{+]+                                                ",
"                                        ^+/+(+_+:+<+[+}+|+1+2+3+4+5+6+7+8+9+0+a+                                                ",
"                                            b+c+d+e+f+$.g+h+i+j+k+l+m+n+o+p+q+r+                                                ",
"                                                s+t+u+v+w+x+y+z+A+B+C+v.D+E+F+G+                                                ",
"                                                    H+I+J+K+L+M+N+O+P+Q+R+S+T+U+                                                ",
"                                                      V+W+X+Y+Z+`+ @.@+@@@#@$@%@                                                ",
"                                                      &@*@=@-@;@>@,@'@)@!@~@{@]@                                                ",
"                                                    ^@/@(@_@:@<@[@}@|@1@2@3@4@5@                                                ",
"                                                    6@7@8@9@0@a@b@}@}@c@d@e@f@g@                                                ",
"                                                  h@i@-+}@j@k@l@m@b@}@n@o@p@q@r@                                                ",
"                                                  s@t@}@}@}@u@v@w@j+}@z+x@y@z@A@                                                ",
"                                                  B@C@}@}@j+D@E@F@G@j+H@I@J@K@L@                                                ",
"                                                    M@}@}@N@O@P@Q@R@S@T@U@V@W@X@                                                ",
"                                                  Y@Z@b@`@ #.#+#@###`@$#%#&#*#=#                                                ",
"                                                  -#;#>#,#'#)#!#~#{#]#^#/#(#_#:#                                                ",
"                                                  <#[#}#|#1#2#3#4#5#6#7#8#9#0#a#                                                ",
"                                                  b#c#d#e#f#g#h#i#j#k#l#m#n#o#p#                                                ",
"                                                    q#r#s#t#u#    v#w#x#y#z#A#                                                  ",
"                                                    @ B#C#D#E#      F#G#H#I#J#                                                  ",
"                                                      K#L#M#N#O#    P#Q#R#S#T#                                                  ",
"                                                      U#V#W#X#        Y#Z#`# $.$                                                ",
"                                                      +$V#@$#$        $$%$&$*$=$                                                ",
"                                                      -$L#;$>$        ,$'$q+)$!$                                                ",
"                                                      ~${$]$^$/$        ($_$:$<$                                                ",
"                                                    [$}$|$1$2$3$        4$5$6$7$8$                                              ",
"                                                    9$0$a$b$c$d$        e$f$g$h$i$                                              ",
"                                                    j$k$l$m$n$          o$p$q$r$s$                                              ",
"                                                    t$u$v$w$x$          y$z$A$B$C$                                              ",
"                                                D$E$F$G$H$I$J$K$          L$M$N$O$P$                                            ",
"                                              Q$R$S$T$U$V$W$X$Y$          Z$`$ %.%+%                                            ",
"                                            @%#%$%%%&%*%=%-%;%            >%,%'%)%!%~%                                          ",
"                                            {%]%^%/%(%_%:%<%            [%}%|%1%2%3%4%                                          ",
"                                              5%6%6%7%                  8%9%0%a%b%c%d%                        * * * * * * * * * ",
"                                                                          e%f%g%h%i%8$                        * * * { * { * * * ",
"                                                                            /$P$P$                            * * { * | * * * * ",
"                                                                                                              * * { | | { * * * ",
"                                                                                                              * * * { | | { { * ",
"                                                                                                              * * * * { | { { * ",
"                                                                                                              * * * * * * * * { "};
