/* XPM */
static char * grass1_xpm[] = {
"64 64 40 1",
" 	c #72751B",
".	c #807F72",
"+	c #7C7B6E",
"@	c #88867D",
"#	c #848279",
"$	c #64604B",
"%	c #87867D",
"&	c #87857C",
"*	c #787B21",
"=	c #7F8226",
"-	c #86847B",
";	c #838178",
">	c #8D8B83",
",	c #605C48",
"'	c #89877F",
")	c #656C17",
"!	c #66624D",
"~	c #878679",
"{	c #8E8C83",
"]	c #8D8C83",
"^	c #848377",
"/	c #86847A",
"(	c #818074",
"_	c #8E8C84",
":	c #87867C",
"<	c #8E8D84",
"[	c #7F8124",
"}	c #8D8B82",
"|	c #6C6852",
"1	c #939189",
"2	c #686F16",
"3	c #8C8A80",
"4	c #8A8A7D",
"5	c #8C8A81",
"6	c #676455",
"7	c #8D8C82",
"8	c #88867E",
"9	c #838279",
"0	c #88877E",
"a	c #828175",
"                                                                ",
"  ............    ++++++++++++    ............    ++++++++++++  ",
" @............@  #++++++++++++#  @............@  #++++++++++++# ",
" @............@  #++++++++++++#  @............@  #++++++++++++# ",
" @............@  #++++++++++++#  @............@  #++++++++++++# ",
" @............@  #++++++++++++#  $$%..........@  #++++++++++++# ",
" @............@  #++++++++++++#   %...........@  #++++++++++++# ",
" @............@  #++++++++++++#   %...........@  #++++++++++++# ",
" @............@  #++++++++++++#  %............@  #++++++++++++# ",
" @............@  #++++++++++++#  %............@  #++++++++++++# ",
" @............@  #++++++++++++#  &............@  #++++++++++++# ",
" @............@  #++++++++++++#  &............@  #++++++++++++# ",
" @............@  #++++++++++++#  &...........*=  #+**+++++++++# ",
" @............@  #++++++++++++#  -............== ;**++++++++++@ ",
" $>>>>>>>>>>>>$  ,''''''''''''$  $>>>>>>>>>>>>)**$**'''''''''>  ",
"  $!!!!!!!!!!$    ,,,,,,$$,,,$    $$$$$$$$$$$$)** ))$$$,,,,,$$  ",
"                                               ))               ",
"  ~~~~~~~~~~~~    ............    ............    ~~~~~~~~~~~~  ",
" {~~~~~~~~~~~~]  ^............/  (............@  _~~~~~~~~~~~~_ ",
" {~~~~~~~~~~~~{  -............&  &............@  _~~~~~~~~~~~~_ ",
" {~~~~~~~~~~~~{  &............%  %............@  _~~~~~~~~~~~~_ ",
" {~~~~~~~~~~~~{  :............%  %............@  <~~~~~~~~~~~~_ ",
" {~~~~~~~~~~~~{  %............%  %............@  <~~~~~~~~~~~~_ ",
" {~~~~~~~~~~~~{  @............%  %............@  <~~~~~~~~~~~~{ ",
" {~~~~~~~~~~~~{  @............%  %............@  <~~~~~~~~~~~~{ ",
" {~~~~~~~~~~~~{  @............%  %............@  <~~~~~~~~~~~~{ ",
" {~~~~~~~~~~~~{  @............&  %............@  <~~~~~~~~~~~~{ ",
" {~~~~~~~~~~~~{  @............&  %............@  <~~~~~~~~~~~~{ ",
" {~~~~~~~~~~~~{  @............&  %............@  <~~~~*~~~~~~~] ",
" {~~~~~~~~~~~~{  @............&  %............&  <~~~[[~~~~~~~} ",
" |111111111111!  $>>>>>>>>>>>>$  $>>>>>>>>>>>>$  $11*[21111111| ",
"  !!|||||||!!!    $$$$$$$$$$$$    $$$$$$$$$$$$    $|**||||||||  ",
"                                                    22          ",
"  ............    ............    ~~~~~~~~~~~~    ............  ",
" @............@  @............@  3~~~~~~~~~~~~4  %............@ ",
" @............@  @............@  }~~~~~~~~~~~~5  @............@ ",
" @............@  @............@  ]~~~~~~~~~~~~}  @............@ ",
" @............@  @..........@66  ]~~~~~~~~~~~~7  @............@ ",
" @............@  @...........@   ]~~~~~~~~~~~~]  @............@ ",
" @............@  @...........@   ]~~~~~~~~~~~~{  @............@ ",
" @............@  @............@  ]~~~~~~~~~~~~{  @............@ ",
" @............@  @............@  ]~~~~~~~~~~~~{  @............@ ",
" @............@  @............@  |]~~~~~~~~~~~{  @............> ",
" @............@  @............@   |]~~~~~~~~~~{  @...........>$ ",
" @............@  @............@    ]~~~~~~~~~~{  %..........>$  ",
" @..........=*$  @............@ [[ ]~~~~~~~~~~{  &.........>$   ",
" $>>>>>=*>>*=)   $>>>>>>>>>>>>>  [**1111111111$  $>>>>>>>>>$    ",
"  $$$$$)**$**     $$$$$$$$$$$$$  2*2||||||||||    $$$$$$$$$     ",
"        )***)                     22                            ",
"  ......)**)         +++++++++    ..........      ......'  ...  ",
" 8.......)*         ++++++++++9  %............   0......' ....8 ",
" 8...........      +++++++++++9  %............@  0.....'$.....8 ",
" 8............@  #++++++++++++9  %............@  0**.''$ .....8 ",
" 8............@  #++++++++++++9  %............@  [[''$$  .....8 ",
" 8............#  *++++++++++++9  %............@ **2$$   ......8 ",
" @............# [[++++++++++++9  %............@ **2    .......@ ",
" @............#*[2++++++++++++9  %............@ *2   .........@ ",
" @............#**#++++++++++++9  %............@    ...........@ ",
" @............@22#++++++++++++9  %............@  0............@ ",
" @............@  #++++++++++++9  %............@  0............@ ",
" %............@  #+++++++++++'>  %...........>>  0............% ",
" &............@  @++++++++++'$$  %........>>*[[  0a...........& ",
" $>>>>>>>>>>>>$  $>'''''''''$    $>>>>>>>>$$$[** $>>>>>>>>>>>>$ ",
"  $$$$$$$$$$$$    $$,,,,,,,$      $$$$$$$$   2**  $$$$$$$$$$$$  "};
