/* XPM */
static char * obstacle1_xpm[] = {
"64 64 284 2",
"  	c None",
". 	c #735542",
"+ 	c #A9A092",
"@ 	c #AAA295",
"# 	c #AAA093",
"$ 	c #AAA194",
"% 	c #AAA193",
"& 	c #ABA395",
"* 	c #ABA396",
"= 	c #A9A192",
"- 	c #A9A193",
"; 	c #ABA394",
"> 	c #6A4D39",
", 	c #A69C8C",
"' 	c #A89E8F",
") 	c #A99F90",
"! 	c #A99F92",
"~ 	c #A9A093",
"{ 	c #705340",
"] 	c #A9A190",
"^ 	c #AAA293",
"/ 	c #9E9180",
"( 	c #A5998B",
"_ 	c #A59B8C",
": 	c #A59A8B",
"< 	c #A29685",
"[ 	c #A29989",
"} 	c #A69D8F",
"| 	c #A69E90",
"1 	c #A69E8F",
"2 	c #A49889",
"3 	c #A8A091",
"4 	c #AEA69A",
"5 	c #A9A191",
"6 	c #A8A090",
"7 	c #AFA79A",
"8 	c #9F9381",
"9 	c #A09382",
"0 	c #A29788",
"a 	c #A19787",
"b 	c #A19786",
"c 	c #AFA69A",
"d 	c #AAA292",
"e 	c #B0A79B",
"f 	c #AFA69B",
"g 	c #AAA294",
"h 	c #B0A89B",
"i 	c #AFA79B",
"j 	c #ACA495",
"k 	c #ABA495",
"l 	c #ACA497",
"m 	c #ACA496",
"n 	c #B0A89C",
"o 	c #ACA597",
"p 	c #ADA598",
"q 	c #B0A99C",
"r 	c #ADA597",
"s 	c #B1A99C",
"t 	c #AFA79C",
"u 	c #896F5C",
"v 	c #ADA698",
"w 	c #AEA699",
"x 	c #8E7665",
"y 	c #B1A99D",
"z 	c #846552",
"A 	c #A29A8D",
"B 	c #7E6352",
"C 	c #A1998B",
"D 	c #ADA699",
"E 	c #7A5C4A",
"F 	c #A19A8C",
"G 	c #795E4B",
"H 	c #A19A8A",
"I 	c #A1998C",
"J 	c #795D4C",
"K 	c #B1A99E",
"L 	c #7C5F4B",
"M 	c #8B7565",
"N 	c #7C604D",
"O 	c #AEA79A",
"P 	c #7B5E4D",
"Q 	c #A1988B",
"R 	c #A1998A",
"S 	c #785C4A",
"T 	c #B2AA9E",
"U 	c #684B36",
"V 	c #785A48",
"W 	c #A0988A",
"X 	c #745643",
"Y 	c #6F5341",
"Z 	c #A1988A",
"` 	c #A09889",
" .	c #B0A99D",
"..	c #60412D",
"+.	c #775946",
"@.	c #9F9688",
"#.	c #9F9689",
"$.	c #9E9383",
"%.	c #9E9384",
"&.	c #725543",
"*.	c #A09689",
"=.	c #9F9788",
"-.	c #9F9787",
";.	c #6E523F",
">.	c #A7A091",
",.	c #60402D",
"'.	c #9D9283",
").	c #9C9283",
"!.	c #9C9282",
"~.	c #9D9383",
"{.	c #9D9382",
"].	c #9E9484",
"^.	c #9E9485",
"/.	c #9F9586",
"(.	c #9F9687",
"_.	c #A19687",
":.	c #62432E",
"<.	c #A59D8F",
"[.	c #9B9181",
"}.	c #9C9181",
"|.	c #9C9180",
"1.	c #9C9281",
"2.	c #9D9282",
"3.	c #9E9382",
"4.	c #9E9483",
"5.	c #9E9585",
"6.	c #A79F91",
"7.	c #A49C8E",
"8.	c #9B9080",
"9.	c #9B907F",
"0.	c #9D9281",
"a.	c #9D9384",
"b.	c #61422D",
"c.	c #A39A8B",
"d.	c #9A8F7F",
"e.	c #9A8F7E",
"f.	c #9A907E",
"g.	c #9A907F",
"h.	c #7B624E",
"i.	c #795E4A",
"j.	c #775B47",
"k.	c #7A5E4A",
"l.	c #7A5F4B",
"m.	c #7C624E",
"n.	c #998E7D",
"o.	c #9A8F7D",
"p.	c #7A5F4A",
"q.	c #775A45",
"r.	c #7C604C",
"s.	c #7E6450",
"t.	c #998E7E",
"u.	c #9B907E",
"v.	c #B7B0A5",
"w.	c #48819F",
"x.	c #46809E",
"y.	c #988D7C",
"z.	c #998E7C",
"A.	c #998F7D",
"B.	c #A49C8D",
"C.	c #62422E",
"D.	c #9E9685",
"E.	c #70A1B4",
"F.	c #548BA8",
"G.	c #988D7B",
"H.	c #A39B8D",
"I.	c #61422E",
"J.	c #9F9685",
"K.	c #988D7A",
"L.	c #988C7A",
"M.	c #988C79",
"N.	c #978B79",
"O.	c #978C79",
"P.	c #978C7A",
"Q.	c #9E9684",
"R.	c #978B78",
"S.	c #968A77",
"T.	c #A19989",
"U.	c #60412C",
"V.	c #9D9381",
"W.	c #968B78",
"X.	c #74513A",
"Y.	c #968B79",
"Z.	c #9F9686",
"`.	c #9D9380",
" +	c #968A78",
".+	c #6F4C36",
"++	c #958977",
"@+	c #958A77",
"#+	c #A09686",
"$+	c #60402B",
"%+	c #6D4B34",
"&+	c #958976",
"*+	c #6E4C35",
"=+	c #5E3F2B",
"-+	c #9B917E",
";+	c #6A4A35",
">+	c #6C4B35",
",+	c #9E9482",
"'+	c #5E3F2A",
")+	c #9A8F7C",
"!+	c #958A76",
"~+	c #9D927F",
"{+	c #61412C",
"]+	c #9A8F7B",
"^+	c #948875",
"/+	c #958975",
"(+	c #9C917E",
"_+	c #9A8E7A",
":+	c #938774",
"<+	c #9C917D",
"[+	c #998E7A",
"}+	c #948874",
"|+	c #9C907D",
"1+	c #938772",
"2+	c #938673",
"3+	c #938773",
"4+	c #9B8F7C",
"5+	c #5D3E2A",
"6+	c #928671",
"7+	c #928572",
"8+	c #928673",
"9+	c #928672",
"0+	c #9A8E79",
"a+	c #998D79",
"b+	c #928570",
"c+	c #918470",
"d+	c #918471",
"e+	c #918571",
"f+	c #918572",
"g+	c #5C3D2A",
"h+	c #988D78",
"i+	c #90836F",
"j+	c #908470",
"k+	c #908471",
"l+	c #998C78",
"m+	c #5B3C29",
"n+	c #978B77",
"o+	c #8F836E",
"p+	c #90836E",
"q+	c #90846E",
"r+	c #90846F",
"s+	c #91846F",
"t+	c #91846E",
"u+	c #998C77",
"v+	c #8F826D",
"w+	c #90826E",
"x+	c #998D78",
"y+	c #593A27",
"z+	c #978A76",
"A+	c #8E816C",
"B+	c #8E826B",
"C+	c #8E826C",
"D+	c #8F816D",
"E+	c #8F826C",
"F+	c #978A75",
"G+	c #5F402C",
"H+	c #968A75",
"I+	c #8D806B",
"J+	c #8D816B",
"K+	c #8E816B",
"L+	c #8F816C",
"M+	c #8E806B",
"N+	c #978A74",
"O+	c #5A3B28",
"P+	c #968975",
"Q+	c #8D806A",
"R+	c #8E806A",
"S+	c #968973",
"T+	c #958974",
"U+	c #8D7F69",
"V+	c #8D7F6A",
"W+	c #8D816A",
"X+	c #8E816A",
"Y+	c #8C7F69",
"Z+	c #968872",
"`+	c #53321D",
" @	c #948873",
".@	c #8C7E68",
"+@	c #8C7E67",
"@@	c #978A73",
"#@	c #573622",
"$@	c #583521",
"%@	c #5A3A27",
"&@	c #593724",
"                                                                                                                                ",
"                                                                                                                                ",
"                                                                                                                                ",
"                                                                                                                                ",
"                                                                                                                                ",
"                                                                                                                                ",
"                                                                                                                                ",
"                                                                                                                                ",
"                                                                                                                                ",
"                                                                                                                                ",
"                                                                                      .                   .                     ",
"                                                                                    . + .               . @ .                   ",
"                                                                                  . # $ % .           . & * * .                 ",
"                                                                                  . = - + .           . @ * ; .                 ",
"                > > > > > > > > > > > > > > > > >                               . , ' ) ) , . . . . . ! $ $ $ ~ {               ",
"              > ] ] ] ] ] ] ] ] ] ] ] ] ] ] ] ] ] >                           > ^ / ( _ : < ] ] ] ] ] [ } | 1 2 3 >             ",
"            > 4 5 ] 5 ] 5 5 ] ] ] ] ] ] 3 3 3 3 6 7 >                       > 4 5 ] 8 9 9 5 ] ] ] ] ] ] 0 a b 3 6 7 >           ",
"            > c - % - - - - % % = = = 5 d d = = 3 e >                       > c - % - - - - % % = = = 5 d d = = 3 e >           ",
"            > f g ^ g @ @ @ @ @ g g g g g g g ^ ^ h >                       > f g ^ g @ @ @ @ @ g g g g g g g ^ ^ h >           ",
"            > i & & & * * * * * * * * * * j k & & h >                       > i & & & * * * * * * * * * * j k & & h >           ",
"            > i & * * l l l l l l l l * m m m m m n >                       > i & * * l l l l l l l l * m m m m m n >           ",
"            > i l l l o p p p p p p p l l l l o o n >                       > i l l l o p p p p p p p l l l l o o n >           ",
"            > i l o l o p p p p p p p p p l l o o q >                       > i l o l o p p p p p p p p p l l o o q >           ",
"            > i o o p p p p p p p p p p p p r o o s >                       > i o o p p p p p p p p p p p p r o o s >           ",
"            > t p p p u p p p p p v p w w x w p p y >                       > t p p p p p p p p p v p w w w w p p y >           ",
"            > n p p z A B p p p p p p w z C B w v y >                       > n p p p p p p p p p p p w w w w w v y >           ",
"            > n D E F F F G p p p p w E H I C J 4 y >                       > n D p p p p p p p p p w w w w w w 4 y >           ",
"            > K 7 L C M C N p p p O O P Q M R S O T >                       > K 7 D p p p p p p p O O O O O O O O T >           ",
"            U K V C M M M W X y y y Y Z M M M ` { K >                       U K  . . . . . . .y y y y y y y y y y K >           ",
"            ..| +.@.@.#.@.@.+.$.%.%.&.*.=.=.-.=.;.>.,.                      ..| '.).!.~.{.'.~.$.%.%.].].^.^./.(._.>.,.          ",
"            :.<.[.}.|.|.}.}.1.2.2.2.2.2.3.4.^.^.5.6.:.                      :.<.[.}.|.|.}.}.1.2.2.2.2.2.3.4.^.^.5.6.:.          ",
"            :.7.8.8.9.9.9.8.8.8.8.8.8.|.}.}.0.~.a.<.:.                      :.7.8.8.9.9.9.8.8.8.8.8.8.|.}.}.0.~.a.<.:.          ",
"            b.c.d.d.e.e.e.f.d.d.d.g.d.9.9.8.|.1.!.7.:.                      b.c.d.d.e.e.e.f.d.d.d.g.d.9.9.8.|.1.!.7.:.          ",
"            b.[ e.h.i.j.k.l.m.n.n.o.h.p.q.r.r.s.g.7.:.                      b.[ e.t.t.n.n.n.n.n.n.o.o.o.o.o.u.u.g.7.:.          ",
"            b.-.n.n.v.w.x.v.y.z.z.z.z.v.w.x.v.A.A.B.:.                      b.-.n.n.z.y.y.y.y.z.z.z.z.z.z.z.n.A.A.B.:.          ",
"            C.D.y.y.v.E.F.v.G.G.G.G.G.v.E.F.v.z.n.H.C.                      C.D.y.y.y.y.G.G.G.G.G.G.G.G.G.z.z.z.n.H.C.          ",
"            I.J.K.G.L.L.L.L.L.L.M.N.O.O.P.L.K.G.z.c.I.                      I.J.K.G.L.L.L.L.L.L.M.N.O.O.P.L.K.G.z.c.I.          ",
"            b.Q.P.O.N.R.R.R.R.R.S.S.R.R.R.N.N.M.L.T.b.                      b.Q.P.O.N.R.R.R.R.R.S.S.R.R.R.N.N.M.L.T.b.          ",
"            U.V.R.R.R.R.R.W.W.S.X.S.S.S.S.W.Y.N.N.Z.U.                      U.V.R.R.R.R.R.W.W.S.S.S.S.S.S.W.Y.N.N.Z.U.          ",
"            U.`.R. + + +W. +S.S..+++@+@+S.S. + +N.#+U.                      U.`.R. + + +W. +S.S.++++@+@+S.S. + +N.#+U.          ",
"            $+1. + + +S.S.S.S.%+&+*+&+&+&+&+S. +R.J.U.                      $+1. + + +S.S.S.S.S.&+&+&+&+&+&+S. +R.J.U.          ",
"            =+-+S.S.S.S.&+&+;+&+&+&+>+&+&+&+&+S.W.,+U.                      =+-+S.S.S.S.&+&+&+&+&+&+&+&+&+&+&+S.W.,+U.          ",
"            '+)+&+&+&+&+&+&+&+&+&+&+&+&+&+&+&+&+!+~+{+                      '+)+&+&+&+&+&+&+&+&+&+&+&+&+&+&+&+&+!+~+{+          ",
"            =+]+&+&+^+^+^+^+^+^+^+^+^+^+^+&+&+^+/+(+{+                      =+]+&+&+^+^+^+^+^+^+^+^+^+^+^+&+&+^+/+(+{+          ",
"            '+_+/+^+^+:+:+:+:+:+:+:+:+:+:+^+^+^+^+<+{+                      '+_+/+^+^+:+:+:+:+:+:+:+:+:+:+^+^+^+^+<+{+          ",
"            =+[+}+}+:+:+:+:+:+:+:+:+:+:+:+:+^+}+:+|+{+                      =+[+}+}+:+:+:+:+:+:+:+:+:+:+:+:+^+}+:+|+{+          ",
"            =+[+1+2+2+3+:+:+:+:+:+:+:+3+3+3+:+:+3+4+{+                      =+[+1+2+2+3+:+:+:+:+:+:+:+3+3+3+:+:+3+4+{+          ",
"            5+[+6+7+7+8+8+9+9+8+8+8+8+8+8+2+2+3+3+0+..                      5+[+6+7+7+8+8+9+9+8+8+8+8+8+8+2+2+3+3+0+..          ",
"            5+a+b+c+c+d+e+e+e+f+9+9+9+9+9+7+7+9+9+a+..                      5+a+b+c+c+d+e+e+e+f+9+9+9+9+9+7+7+9+9+a+..          ",
"            g+h+i+i+j+j+j+j+j+k+k+k+k+k+k+k+c+c+b+l+U.                      g+h+i+i+j+j+j+j+j+k+k+k+k+k+k+k+c+c+b+l+U.          ",
"            m+n+o+i+p+q+q+q+r+r+r+r+r+j+j+j+i+s+t+u+U.                      m+n+o+i+p+q+q+q+r+r+r+r+r+j+j+j+i+s+t+u+U.          ",
"            m+n+v+v+v+v+v+v+v+v+v+v+v+v+p+p+p+p+w+x+U.                      m+n+v+v+v+v+v+v+v+v+v+v+v+v+p+p+p+p+w+x+U.          ",
"            y+z+A+B+C+v+D+D+D+D+D+D+D+v+v+v+E+C+v+F+G+                      y+z+A+B+C+v+D+D+D+D+D+D+D+v+v+v+E+C+v+F+G+          ",
"            y+H+I+J+K+K+L+L+L+L+L+L+L+A+L+E+A+A+M+N+O+                      y+H+I+J+K+K+L+L+L+L+L+L+L+A+L+E+A+A+M+N+O+          ",
"            y+P+Q+I+J+K+K+K+K+K+K+K+K+A+K+K+M+M+R+S+O+                      y+P+Q+I+J+K+K+K+K+K+K+K+K+A+K+K+M+M+R+S+O+          ",
"            y+T+U+U+V+Q+W+W+X+X+X+X+R+R+R+Q+V+U+Y+Z+O+                      y+T+U+U+V+Q+W+W+X+X+X+X+R+R+R+Q+V+U+Y+Z+O+          ",
"            `+ @U+U+U+U+U+U+U+U+V+V+V+V+U+U+U+.@+@@@#@                      `+ @U+U+U+U+U+U+U+U+V+V+V+V+U+U+U+.@+@@@#@          ",
"              $@%@%@%@%@%@%@%@%@%@%@%@%@%@%@%@%@%@&@                          $@%@%@%@%@%@%@%@%@%@%@%@%@%@%@%@%@%@&@            ",
"                                                                                                                                ",
"                                                                                                                                ",
"                                                                                                                                ",
"                                                                                                                                ",
"                                                                                                                                ",
"                                                                                                                                "};
