/* XPM */
static char * obstacle0_xpm[] = {
"64 64 255 2",
"  	c None",
". 	c #735542",
"+ 	c #A9A092",
"@ 	c #AAA295",
"# 	c #AAA093",
"$ 	c #AAA194",
"% 	c #AAA193",
"& 	c #ABA395",
"* 	c #ABA396",
"= 	c #A9A192",
"- 	c #A9A193",
"; 	c #ABA394",
"> 	c #A69C8C",
", 	c #A89E8F",
"' 	c #A99F90",
") 	c #A99F92",
"! 	c #A9A093",
"~ 	c #705340",
"{ 	c #6B4F3E",
"] 	c #6A4D39",
"^ 	c #AAA293",
"/ 	c #9E9180",
"( 	c #A5998B",
"_ 	c #A59B8C",
": 	c #A59A8B",
"< 	c #A29685",
"[ 	c #A9A190",
"} 	c #A29989",
"| 	c #A69D8F",
"1 	c #A69E90",
"2 	c #A69E8F",
"3 	c #A49889",
"4 	c #A8A091",
"5 	c #AEA699",
"6 	c #AEA599",
"7 	c #AEA69A",
"8 	c #A9A191",
"9 	c #9F9381",
"0 	c #A09382",
"a 	c #A29788",
"b 	c #A19787",
"c 	c #A19786",
"d 	c #A8A090",
"e 	c #AFA79A",
"f 	c #A9A194",
"g 	c #AFA69A",
"h 	c #AAA292",
"i 	c #B0A79B",
"j 	c #6E513E",
"k 	c #A89E90",
"l 	c #A69D8D",
"m 	c #A49A8A",
"n 	c #AFA69B",
"o 	c #AAA294",
"p 	c #B0A89B",
"q 	c #694C3A",
"r 	c #A49989",
"s 	c #A29887",
"t 	c #9F9482",
"u 	c #AFA79B",
"v 	c #ACA495",
"w 	c #ABA495",
"x 	c #654937",
"y 	c #A09482",
"z 	c #ACA497",
"A 	c #ACA496",
"B 	c #B0A89C",
"C 	c #ABA496",
"D 	c #ACA597",
"E 	c #ADA598",
"F 	c #B0A99C",
"G 	c #ABA596",
"H 	c #ADA597",
"I 	c #B1A99C",
"J 	c #AFA79C",
"K 	c #ADA698",
"L 	c #B1A99D",
"M 	c #6F513E",
"N 	c #A89F90",
"O 	c #A79E90",
"P 	c #A49A8B",
"Q 	c #ADA699",
"R 	c #6A4C38",
"S 	c #A3998B",
"T 	c #A29987",
"U 	c #A09483",
"V 	c #B1A99E",
"W 	c #AEA79A",
"X 	c #B2AA9E",
"Y 	c #684B36",
"Z 	c #9E917F",
"` 	c #B0A99D",
" .	c #60412D",
"..	c #9D9283",
"+.	c #9C9283",
"@.	c #9C9282",
"#.	c #9D9383",
"$.	c #9D9382",
"%.	c #9E9383",
"&.	c #9E9384",
"*.	c #9E9484",
"=.	c #9E9485",
"-.	c #9F9586",
";.	c #9F9687",
">.	c #A19687",
",.	c #A7A091",
"'.	c #60402D",
").	c #62432E",
"!.	c #A59D8F",
"~.	c #9B9181",
"{.	c #9C9181",
"].	c #9C9180",
"^.	c #9C9281",
"/.	c #9D9282",
"(.	c #9E9382",
"_.	c #9E9483",
":.	c #9E9585",
"<.	c #A79F91",
"[.	c #A49C8E",
"}.	c #9B9080",
"|.	c #9B907F",
"1.	c #9D9281",
"2.	c #9D9384",
"3.	c #61422D",
"4.	c #A39A8B",
"5.	c #9A8F7F",
"6.	c #9A8F7E",
"7.	c #9A907E",
"8.	c #9A907F",
"9.	c #998E7E",
"0.	c #998E7D",
"a.	c #9A8F7D",
"b.	c #9B907E",
"c.	c #9F9787",
"d.	c #998E7C",
"e.	c #988D7C",
"f.	c #998F7D",
"g.	c #A49C8D",
"h.	c #62422E",
"i.	c #9E9685",
"j.	c #988D7B",
"k.	c #A39B8D",
"l.	c #61422E",
"m.	c #9F9685",
"n.	c #988D7A",
"o.	c #988C7A",
"p.	c #988C79",
"q.	c #978B79",
"r.	c #978C79",
"s.	c #978C7A",
"t.	c #9E9684",
"u.	c #978B78",
"v.	c #968A77",
"w.	c #A19989",
"x.	c #60412C",
"y.	c #9D9381",
"z.	c #968B78",
"A.	c #968B79",
"B.	c #9F9686",
"C.	c #9D9380",
"D.	c #968A78",
"E.	c #958977",
"F.	c #958A77",
"G.	c #A09686",
"H.	c #60402B",
"I.	c #958976",
"J.	c #5E3F2B",
"K.	c #9B917E",
"L.	c #9E9482",
"M.	c #5E3F2A",
"N.	c #9A8F7C",
"O.	c #958A76",
"P.	c #9D927F",
"Q.	c #61412C",
"R.	c #9A8F7B",
"S.	c #948875",
"T.	c #958975",
"U.	c #9C917E",
"V.	c #9A8E7A",
"W.	c #938774",
"X.	c #9C917D",
"Y.	c #998E7A",
"Z.	c #948874",
"`.	c #9C907D",
" +	c #938772",
".+	c #938673",
"++	c #938773",
"@+	c #9B8F7C",
"#+	c #5D3E2A",
"$+	c #928671",
"%+	c #928572",
"&+	c #928673",
"*+	c #928672",
"=+	c #9A8E79",
"-+	c #998D79",
";+	c #928570",
">+	c #918470",
",+	c #918471",
"'+	c #918571",
")+	c #918572",
"!+	c #5C3D2A",
"~+	c #988D78",
"{+	c #90836F",
"]+	c #908470",
"^+	c #908471",
"/+	c #998C78",
"(+	c #5B3C29",
"_+	c #978B77",
":+	c #8F836E",
"<+	c #90836E",
"[+	c #90846E",
"}+	c #90846F",
"|+	c #91846F",
"1+	c #91846E",
"2+	c #998C77",
"3+	c #8F826D",
"4+	c #90826E",
"5+	c #998D78",
"6+	c #593A27",
"7+	c #978A76",
"8+	c #8E816C",
"9+	c #8E826B",
"0+	c #8E826C",
"a+	c #8F816D",
"b+	c #8F826C",
"c+	c #978A75",
"d+	c #5F402C",
"e+	c #968A75",
"f+	c #8D806B",
"g+	c #8D816B",
"h+	c #8E816B",
"i+	c #8F816C",
"j+	c #8E806B",
"k+	c #978A74",
"l+	c #5A3B28",
"m+	c #968975",
"n+	c #8D806A",
"o+	c #8E806A",
"p+	c #968973",
"q+	c #958974",
"r+	c #8D7F69",
"s+	c #8D7F6A",
"t+	c #8D816A",
"u+	c #8E816A",
"v+	c #8C7F69",
"w+	c #968872",
"x+	c #53321D",
"y+	c #948873",
"z+	c #8C7E68",
"A+	c #8C7E67",
"B+	c #978A73",
"C+	c #573622",
"D+	c #583521",
"E+	c #5A3A27",
"F+	c #593724",
"                                                                                                                                ",
"                                                                                                                                ",
"                                                                                                                                ",
"                                                                                                                                ",
"                                                                                                                                ",
"                                                                                                                                ",
"                                                                                                                                ",
"                                                                                                                                ",
"                                                                                                                                ",
"                                                                                                                                ",
"                      .                   .                                                                                     ",
"                    . + .               . @ .                                                                                   ",
"                  . # $ % .           . & * * .                                                                                 ",
"                  . = - + .           . @ * ; .                           . .                                                   ",
"                . > , ' ' > . . . . . ) $ $ $ ! ~                         . @ . { ] ] ] ] ] ] ] ] ] ] ] ] ] ] ]                 ",
"              ] ^ / ( _ : < [ [ [ [ [ } | 1 2 3 4 ]                       . @ @ . 5 5 6 5 5 5 5 5 5 5 5 5 5 5 5 ]               ",
"            ] 7 8 [ 9 0 0 8 [ [ [ [ [ [ a b c 4 d e ]                     . @ f . 8 [ 8 8 [ [ [ [ [ [ 4 4 4 4 d e ]             ",
"            ] g - % - - - - % % = = = 8 h h = = 4 i ]                     j k l m . - - - % % = = = 8 h h = = 4 i ]             ",
"            ] n o ^ o @ @ @ @ @ o o o o o o o ^ ^ p ]                     q r s t o @ @ @ @ @ o o o o o o o ^ ^ p ]             ",
"            ] u & & & * * * * * * * * * * v w & & p ]                     x b y & & * * * * * * * * * * v w & & p ]             ",
"            ] u & * * z z z z z z z z * A A A A A B ]                     x u C C * z z z z z z z z * A A A A A B ]             ",
"            ] u z z z D E E E E E E E z z z z D D B ]                     . . C C z D E E E E E E E z z z z D D B ]             ",
"            ] u z D z D E E E E E E E E E z z D D F ]                     . - . G z D E E E E E E E E E z z D D F ]             ",
"            ] u D D E E E E E E E E E E E E H D D I ]                     . o $ . E E E E E E E E E E E E H D D I ]             ",
"            ] J E E E E E E E E E K E 5 5 5 5 E E L ]                     . ! - . E E E E E E E K E 5 5 5 5 E E L ]             ",
"            ] B E E E E E E E E E E E 5 5 5 5 5 K L ]                     M N O P . E E E E E E E E 5 5 5 5 5 K L ]             ",
"            ] B Q E E E E E E E E E 5 5 5 5 5 5 7 L ]                     R S T U E E E E E E E E 5 5 5 5 5 5 7 L ]             ",
"            ] V e Q E E E E E E E W W W W W W W W X ]                     Y t Z Q E E E E E E E W W W W W W W W X ]             ",
"            Y V ` ` ` ` ` ` ` L L L L L L L L L L V ]                     Y V ` ` ` ` ` ` ` L L L L L L L L L L V ]             ",
"             .1 ..+.@.#.$...#.%.&.&.*.*.=.=.-.;.>.,.'.                     .1 ..+.@.#.$...#.%.&.&.*.*.=.=.-.;.>.,.'.            ",
"            ).!.~.{.].].{.{.^./././././.(._.=.=.:.<.).                    ).!.~.{.].].{.{.^./././././.(._.=.=.:.<.).            ",
"            ).[.}.}.|.|.|.}.}.}.}.}.}.].{.{.1.#.2.!.).                    ).[.}.}.|.|.|.}.}.}.}.}.}.].{.{.1.#.2.!.).            ",
"            3.4.5.5.6.6.6.7.5.5.5.8.5.|.|.}.].^.@.[.).                    3.4.5.5.6.6.6.7.5.5.5.8.5.|.|.}.].^.@.[.).            ",
"            3.} 6.9.9.0.0.0.0.0.0.a.a.a.a.a.b.b.8.[.).                    3.} 6.9.9.0.0.0.0.0.0.a.a.a.a.a.b.b.8.[.).            ",
"            3.c.0.0.d.e.e.e.e.d.d.d.d.d.d.d.0.f.f.g.).                    3.c.0.0.d.e.e.e.e.d.d.d.d.d.d.d.0.f.f.g.).            ",
"            h.i.e.e.e.e.j.j.j.j.j.j.j.j.j.d.d.d.0.k.h.                    h.i.e.e.e.e.j.j.j.j.j.j.j.j.j.d.d.d.0.k.h.            ",
"            l.m.n.j.o.o.o.o.o.o.p.q.r.r.s.o.n.j.d.4.l.                    l.m.n.j.o.o.o.o.o.o.p.q.r.r.s.o.n.j.d.4.l.            ",
"            3.t.s.r.q.u.u.u.u.u.v.v.u.u.u.q.q.p.o.w.3.                    3.t.s.r.q.u.u.u.u.u.v.v.u.u.u.q.q.p.o.w.3.            ",
"            x.y.u.u.u.u.u.z.z.v.v.v.v.v.v.z.A.q.q.B.x.                    x.y.u.u.u.u.u.z.z.v.v.v.v.v.v.z.A.q.q.B.x.            ",
"            x.C.u.D.D.D.z.D.v.v.E.E.F.F.v.v.D.D.q.G.x.                    x.C.u.D.D.D.z.D.v.v.E.E.F.F.v.v.D.D.q.G.x.            ",
"            H.^.D.D.D.v.v.v.v.v.I.I.I.I.I.I.v.D.u.m.x.                    H.^.D.D.D.v.v.v.v.v.I.I.I.I.I.I.v.D.u.m.x.            ",
"            J.K.v.v.v.v.I.I.I.I.I.I.I.I.I.I.I.v.z.L.x.                    J.K.v.v.v.v.I.I.I.I.I.I.I.I.I.I.I.v.z.L.x.            ",
"            M.N.I.I.I.I.I.I.I.I.I.I.I.I.I.I.I.I.O.P.Q.                    M.N.I.I.I.I.I.I.I.I.I.I.I.I.I.I.I.I.O.P.Q.            ",
"            J.R.I.I.S.S.S.S.S.S.S.S.S.S.S.I.I.S.T.U.Q.                    J.R.I.I.S.S.S.S.S.S.S.S.S.S.S.I.I.S.T.U.Q.            ",
"            M.V.T.S.S.W.W.W.W.W.W.W.W.W.W.S.S.S.S.X.Q.                    M.V.T.S.S.W.W.W.W.W.W.W.W.W.W.S.S.S.S.X.Q.            ",
"            J.Y.Z.Z.W.W.W.W.W.W.W.W.W.W.W.W.S.Z.W.`.Q.                    J.Y.Z.Z.W.W.W.W.W.W.W.W.W.W.W.W.S.Z.W.`.Q.            ",
"            J.Y. +.+.+++W.W.W.W.W.W.W.++++++W.W.++@+Q.                    J.Y. +.+.+++W.W.W.W.W.W.W.++++++W.W.++@+Q.            ",
"            #+Y.$+%+%+&+&+*+*+&+&+&+&+&+&+.+.+++++=+ .                    #+Y.$+%+%+&+&+*+*+&+&+&+&+&+&+.+.+++++=+ .            ",
"            #+-+;+>+>+,+'+'+'+)+*+*+*+*+*+%+%+*+*+-+ .                    #+-+;+>+>+,+'+'+'+)+*+*+*+*+*+%+%+*+*+-+ .            ",
"            !+~+{+{+]+]+]+]+]+^+^+^+^+^+^+^+>+>+;+/+x.                    !+~+{+{+]+]+]+]+]+^+^+^+^+^+^+^+>+>+;+/+x.            ",
"            (+_+:+{+<+[+[+[+}+}+}+}+}+]+]+]+{+|+1+2+x.                    (+_+:+{+<+[+[+[+}+}+}+}+}+]+]+]+{+|+1+2+x.            ",
"            (+_+3+3+3+3+3+3+3+3+3+3+3+3+<+<+<+<+4+5+x.                    (+_+3+3+3+3+3+3+3+3+3+3+3+3+<+<+<+<+4+5+x.            ",
"            6+7+8+9+0+3+a+a+a+a+a+a+a+3+3+3+b+0+3+c+d+                    6+7+8+9+0+3+a+a+a+a+a+a+a+3+3+3+b+0+3+c+d+            ",
"            6+e+f+g+h+h+i+i+i+i+i+i+i+8+i+b+8+8+j+k+l+                    6+e+f+g+h+h+i+i+i+i+i+i+i+8+i+b+8+8+j+k+l+            ",
"            6+m+n+f+g+h+h+h+h+h+h+h+h+8+h+h+j+j+o+p+l+                    6+m+n+f+g+h+h+h+h+h+h+h+h+8+h+h+j+j+o+p+l+            ",
"            6+q+r+r+s+n+t+t+u+u+u+u+o+o+o+n+s+r+v+w+l+                    6+q+r+r+s+n+t+t+u+u+u+u+o+o+o+n+s+r+v+w+l+            ",
"            x+y+r+r+r+r+r+r+r+r+s+s+s+s+r+r+r+z+A+B+C+                    x+y+r+r+r+r+r+r+r+r+s+s+s+s+r+r+r+z+A+B+C+            ",
"              D+E+E+E+E+E+E+E+E+E+E+E+E+E+E+E+E+E+F+                        D+E+E+E+E+E+E+E+E+E+E+E+E+E+E+E+E+E+F+              ",
"                                                                                                                                ",
"                                                                                                                                ",
"                                                                                                                                ",
"                                                                                                                                ",
"                                                                                                                                ",
"                                                                                                                                "};
