/* XPM */
static char * obstacle2_xpm[] = {
"64 64 233 2",
"  	c None",
". 	c #735542",
"+ 	c #AAA295",
"@ 	c #6B4F3E",
"# 	c #6A4D39",
"$ 	c #AEA699",
"% 	c #AEA599",
"& 	c #A9A194",
"* 	c #A9A191",
"= 	c #A9A190",
"- 	c #A8A091",
"; 	c #A8A090",
"> 	c #AFA79A",
", 	c #6E513E",
"' 	c #A89E90",
") 	c #A69D8D",
"! 	c #A49A8A",
"~ 	c #A9A193",
"{ 	c #AAA193",
"] 	c #A9A192",
"^ 	c #AAA292",
"/ 	c #B0A79B",
"( 	c #694C3A",
"_ 	c #A49989",
": 	c #A29887",
"< 	c #9F9482",
"[ 	c #AAA294",
"} 	c #AAA293",
"| 	c #B0A89B",
"1 	c #654937",
"2 	c #A19787",
"3 	c #A09482",
"4 	c #ABA395",
"5 	c #ABA396",
"6 	c #ACA495",
"7 	c #ABA495",
"8 	c #AFA79B",
"9 	c #ABA496",
"0 	c #ACA497",
"a 	c #ACA496",
"b 	c #B0A89C",
"c 	c #ACA597",
"d 	c #ADA598",
"e 	c #ABA596",
"f 	c #B0A99C",
"g 	c #AAA194",
"h 	c #ADA597",
"i 	c #B1A99C",
"j 	c #A9A093",
"k 	c #ADA698",
"l 	c #B1A99D",
"m 	c #6F513E",
"n 	c #A89F90",
"o 	c #A79E90",
"p 	c #A49A8B",
"q 	c #6A4C38",
"r 	c #A3998B",
"s 	c #A29987",
"t 	c #A09483",
"u 	c #AEA69A",
"v 	c #684B36",
"w 	c #9E917F",
"x 	c #ADA699",
"y 	c #AEA79A",
"z 	c #B2AA9E",
"A 	c #B1A99E",
"B 	c #B0A99D",
"C 	c #60412D",
"D 	c #A69E90",
"E 	c #9D9283",
"F 	c #9C9283",
"G 	c #9C9282",
"H 	c #9D9383",
"I 	c #9D9382",
"J 	c #9E9383",
"K 	c #9E9384",
"L 	c #9E9484",
"M 	c #9E9485",
"N 	c #9F9586",
"O 	c #9F9687",
"P 	c #A19687",
"Q 	c #A7A091",
"R 	c #60402D",
"S 	c #62432E",
"T 	c #A59D8F",
"U 	c #9B9181",
"V 	c #9C9181",
"W 	c #9C9180",
"X 	c #9C9281",
"Y 	c #9D9282",
"Z 	c #9E9382",
"` 	c #9E9483",
" .	c #9E9585",
"..	c #A79F91",
"+.	c #A49C8E",
"@.	c #9B9080",
"#.	c #9B907F",
"$.	c #9D9281",
"%.	c #9D9384",
"&.	c #61422D",
"*.	c #A39A8B",
"=.	c #9A8F7F",
"-.	c #9A8F7E",
";.	c #9A907E",
">.	c #9A907F",
",.	c #311512",
"'.	c #A29989",
").	c #998E7E",
"!.	c #998E7D",
"~.	c #9A8F7D",
"{.	c #9B907E",
"].	c #9F9787",
"^.	c #998E7C",
"/.	c #988D7C",
"(.	c #998F7D",
"_.	c #A49C8D",
":.	c #62422E",
"<.	c #9E9685",
"[.	c #988D7B",
"}.	c #A39B8D",
"|.	c #61422E",
"1.	c #9F9685",
"2.	c #988D7A",
"3.	c #988C7A",
"4.	c #988C79",
"5.	c #978B79",
"6.	c #978C79",
"7.	c #978C7A",
"8.	c #9E9684",
"9.	c #978B78",
"0.	c #968A77",
"a.	c #A19989",
"b.	c #60412C",
"c.	c #9D9381",
"d.	c #968B78",
"e.	c #968B79",
"f.	c #9F9686",
"g.	c #9D9380",
"h.	c #968A78",
"i.	c #958977",
"j.	c #958A77",
"k.	c #A09686",
"l.	c #60402B",
"m.	c #958976",
"n.	c #5E3F2B",
"o.	c #9B917E",
"p.	c #9E9482",
"q.	c #5E3F2A",
"r.	c #9A8F7C",
"s.	c #958A76",
"t.	c #9D927F",
"u.	c #61412C",
"v.	c #9A8F7B",
"w.	c #948875",
"x.	c #958975",
"y.	c #9C917E",
"z.	c #9A8E7A",
"A.	c #938774",
"B.	c #9C917D",
"C.	c #998E7A",
"D.	c #948874",
"E.	c #9C907D",
"F.	c #938772",
"G.	c #938673",
"H.	c #938773",
"I.	c #9B8F7C",
"J.	c #5D3E2A",
"K.	c #928671",
"L.	c #928572",
"M.	c #928673",
"N.	c #928672",
"O.	c #9A8E79",
"P.	c #998D79",
"Q.	c #928570",
"R.	c #918470",
"S.	c #918471",
"T.	c #918571",
"U.	c #918572",
"V.	c #5C3D2A",
"W.	c #988D78",
"X.	c #90836F",
"Y.	c #908470",
"Z.	c #908471",
"`.	c #998C78",
" +	c #5B3C29",
".+	c #978B77",
"++	c #8F836E",
"@+	c #90836E",
"#+	c #90846E",
"$+	c #90846F",
"%+	c #91846F",
"&+	c #91846E",
"*+	c #998C77",
"=+	c #8F826D",
"-+	c #90826E",
";+	c #998D78",
">+	c #593A27",
",+	c #978A76",
"'+	c #8E816C",
")+	c #8E826B",
"!+	c #8E826C",
"~+	c #8F816D",
"{+	c #8F826C",
"]+	c #978A75",
"^+	c #5F402C",
"/+	c #968A75",
"(+	c #8D806B",
"_+	c #8D816B",
":+	c #8E816B",
"<+	c #8F816C",
"[+	c #8E806B",
"}+	c #978A74",
"|+	c #5A3B28",
"1+	c #968975",
"2+	c #8D806A",
"3+	c #8E806A",
"4+	c #968973",
"5+	c #958974",
"6+	c #8D7F69",
"7+	c #8D7F6A",
"8+	c #8D816A",
"9+	c #8E816A",
"0+	c #8C7F69",
"a+	c #968872",
"b+	c #53321D",
"c+	c #948873",
"d+	c #8C7E68",
"e+	c #8C7E67",
"f+	c #978A73",
"g+	c #573622",
"h+	c #583521",
"i+	c #5A3A27",
"j+	c #593724",
"                                                                                                                                ",
"                                                                                                                                ",
"                                                                                                                                ",
"                                                                                                                                ",
"                                                                                                                                ",
"                                                                                                                                ",
"                                                                                                                                ",
"                                                                                                                                ",
"                                                                                                                                ",
"                                                                                                                                ",
"                                                                                                                                ",
"                                                                                                                                ",
"                                                                                                                                ",
"          . .                                                                                                                   ",
"          . + . @ # # # # # # # # # # # # # # #                                                                                 ",
"          . + + . $ $ % $ $ $ $ $ $ $ $ $ $ $ $ #                                                                               ",
"          . + & . * = * * = = = = = = - - - - ; > #                                                                             ",
"          , ' ) ! . ~ ~ ~ { { ] ] ] * ^ ^ ] ] - / #                                                                             ",
"          ( _ : < [ + + + + + [ [ [ [ [ [ [ } } | #                                                                             ",
"          1 2 3 4 4 5 5 5 5 5 5 5 5 5 5 6 7 4 4 | #                                                                             ",
"          1 8 9 9 5 0 0 0 0 0 0 0 0 5 a a a a a b #                                                                             ",
"          . . 9 9 0 c d d d d d d d 0 0 0 0 c c b #                                                                             ",
"          . ~ . e 0 c d d d d d d d d d 0 0 c c f #                                                                             ",
"          . [ g . d d d d d d d d d d d d h c c i #                                                                             ",
"          . j ~ . d d d d d d d k d $ $ $ $ d d l #                                                                             ",
"          m n o p . d d d d d d d d $ $ $ $ $ k l #                                                                             ",
"          q r s t d d d d d d d d $ $ $ $ $ $ u l #                                                                             ",
"          v < w x d d d d d d d y y y y y y y y z #                                                                             ",
"          v A B B B B B B B l l l l l l l l l l A #                                                                             ",
"          C D E F G H I E H J K K L L M M N O P Q R                                                                             ",
"          S T U V W W V V X Y Y Y Y Y Z ` M M  ...S                                                                             ",
"          S +.@.@.#.#.#.@.@.@.@.@.@.W V V $.H %.T S                                                                             ",
"          &.*.=.=.-.-.-.;.=.=.=.>.=.#.#.@.W X G +.S                             ,.,.,.,.,.,.,.,.,.,.,.,.,.,.,.,.,.,.,.,.,.      ",
"          &.'.-.).).!.!.!.!.!.!.~.~.~.~.~.{.{.>.+.S                             ,.,.,.,.,.,.,.,.,.,.,.,.,.,.,.,.,.,.,.,.,.,.    ",
"          &.].!.!.^././././.^.^.^.^.^.^.^.!.(.(._.S                           ,.,.,.,.,.,.,.,.,.,.,.,.,.,.,.,.,.,.,.,.,.,.,.    ",
"          :.<././././.[.[.[.[.[.[.[.[.[.^.^.^.!.}.:.                          ,.,.,.,.,.,.,.,.,.,.,.,.,.,.,.,.,.,.,.,.,.,.,.    ",
"          |.1.2.[.3.3.3.3.3.3.4.5.6.6.7.3.2.[.^.*.|.                        ,.,.,.,.,.,.,.,.,.,.,.,.,.,.,.,.,.,.,.,.,.,.,.,.    ",
"          &.8.7.6.5.9.9.9.9.9.0.0.9.9.9.5.5.4.3.a.&.                        ,.,.,.,.,.,.,.,.,.,.,.,.,.,.,.,.,.,.,.,.,.,.,.,.    ",
"          b.c.9.9.9.9.9.d.d.0.0.0.0.0.0.d.e.5.5.f.b.                      ,.,.,.,.,.,.,.,.,.,.,.,.,.,.,.,.,.,.,.,.,.,.,.,.,.    ",
"          b.g.9.h.h.h.d.h.0.0.i.i.j.j.0.0.h.h.5.k.b.                      ,.,.,.,.,.,.,.,.,.,.,.,.,.,.,.,.,.,.,.,.,.,.,.,.,.    ",
"          l.X h.h.h.0.0.0.0.0.m.m.m.m.m.m.0.h.9.1.b.                    ,.,.,.,.,.,.,.,.,.,.,.,.,.,.,.,.,.,.,.,.,.,.,.,.,.,.    ",
"          n.o.0.0.0.0.m.m.m.m.m.m.m.m.m.m.m.0.d.p.b.                    ,.,.,.,.,.,.,.,.,.,.,.,.,.,.,.,.,.,.,.,.,.,.,.,.,.,.    ",
"          q.r.m.m.m.m.m.m.m.m.m.m.m.m.m.m.m.m.s.t.u.                  ,.,.,.,.,.,.,.,.,.,.,.,.,.,.,.,.,.,.,.,.,.,.,.,.,.,.,.    ",
"          n.v.m.m.w.w.w.w.w.w.w.w.w.w.w.m.m.w.x.y.u.                  ,.,.,.,.,.,.,.,.,.,.,.,.,.,.,.,.,.,.,.,.,.,.,.,.,.,.,.    ",
"          q.z.x.w.w.A.A.A.A.A.A.A.A.A.A.w.w.w.w.B.u.                  ,.,.,.,.,.,.,.,.,.,.,.,.,.,.,.,.,.,.,.,.,.,.,.,.,.,.,.    ",
"          n.C.D.D.A.A.A.A.A.A.A.A.A.A.A.A.w.D.A.E.u.                  ,.,.,.,.,.,.,.,.,.,.,.,.,.,.,.,.,.,.,.,.,.,.,.,.,.,.,.    ",
"          n.C.F.G.G.H.A.A.A.A.A.A.A.H.H.H.A.A.H.I.u.                  ,.,.,.,.,.,.,.,.,.,.,.,.,.,.,.,.,.,.,.,.,.,.,.,.,.,.,.    ",
"          J.C.K.L.L.M.M.N.N.M.M.M.M.M.M.G.G.H.H.O.C                   ,.,.,.,.,.,.,.,.,.,.,.,.,.,.,.,.,.,.,.,.,.,.,.,.,.,.,.    ",
"          J.P.Q.R.R.S.T.T.T.U.N.N.N.N.N.L.L.N.N.P.C                   ,.,.,.,.,.,.,.,.,.,.,.,.,.,.,.,.,.,.,.,.,.,.,.,.,.,.      ",
"          V.W.X.X.Y.Y.Y.Y.Y.Z.Z.Z.Z.Z.Z.Z.R.R.Q.`.b.                  ,.,.,.,.,.,.,.,.,.,.,.,.,.,.,.,.,.,.,.,.,.,.,.,.,.,.      ",
"           +.+++X.@+#+#+#+$+$+$+$+$+Y.Y.Y.X.%+&+*+b.                  ,.,.,.,.,.,.,.,.,.,.,.,.,.,.,.,.,.,.,.,.,.,.,.,.,.        ",
"           +.+=+=+=+=+=+=+=+=+=+=+=+=+@+@+@+@+-+;+b.                  ,.,.,.,.,.,.,.,.,.,.,.,.,.,.,.,.,.,.,.,.,.,.,.,.,.        ",
"          >+,+'+)+!+=+~+~+~+~+~+~+~+=+=+=+{+!+=+]+^+                  ,.,.,.,.,.,.,.,.,.,.,.,.,.,.,.,.,.,.,.,.,.,.,.,.          ",
"          >+/+(+_+:+:+<+<+<+<+<+<+<+'+<+{+'+'+[+}+|+                  ,.,.,.,.,.,.,.,.,.,.,.,.,.,.,.,.,.,.,.,.,.,.,.,.          ",
"          >+1+2+(+_+:+:+:+:+:+:+:+:+'+:+:+[+[+3+4+|+                  ,.,.,.,.,.,.,.,.,.,.,.,.,.,.,.,.,.,.,.,.,.,.,.            ",
"          >+5+6+6+7+2+8+8+9+9+9+9+3+3+3+2+7+6+0+a+|+                  ,.,.,.,.,.,.,.,.,.,.,.,.,.,.,.,.,.,.,.,.,.,.,.            ",
"          b+c+6+6+6+6+6+6+6+6+7+7+7+7+6+6+6+d+e+f+g+                  ,.,.,.,.,.,.,.,.,.,.,.,.,.,.,.,.,.,.,.,.,.,.              ",
"            h+i+i+i+i+i+i+i+i+i+i+i+i+i+i+i+i+i+j+                    ,.,.,.,.,.,.,.,.,.,.,.,.,.,.,.,.,.,.,.,.,.,.              ",
"                                                                      ,.,.,.,.,.,.,.,.,.,.,.,.,.,.,.,.,.,.,.,.,.                ",
"                                                                        ,.,.,.,.,.,.,.,.,.,.,.,.,.,.,.,.,.,.,.                  ",
"                                                                                                                                ",
"                                                                                                                                ",
"                                                                                                                                ",
"                                                                                                                                "};
