/* XPM */
static char * obstacle0_xpm[] = {
"64 64 20 1",
" 	c #B8F078",
".	c #208840",
"+	c #084828",
"@	c #105830",
"#	c #107038",
"$	c #38B058",
"%	c #50E060",
"&	c #48C058",
"*	c #58F068",
"=	c #28A060",
"-	c #003030",
";	c #208078",
">	c #002030",
",	c #504020",
"'	c #006068",
")	c #785828",
"!	c #806838",
"~	c #208880",
"{	c #003848",
"]	c #A07040",
"       .+@####$%%%%&.##.###.$%****%$.###.##.&%%%%$####@+.       ",
"      &+@##&=.&&&$=....@##.#=&%**%&=#.##@....=$&&&.=&##@+&      ",
"      .+..$%$@#@@#.$%%=+#####$%**%$#####+=%%$.#@@#@$%$..+.      ",
"      #-@.$=.@+@#.&***&#@##.#.%**%.#.##@#&***&.#@+@.=$.@-#      ",
"      @-@@++++-@=&%**%=.$$$$..$%%$..$$$$.=%**%&=@-++++@@-@      ",
"     $+@@++++@-#=&%%%&.&&&&&........&&&&&.&%%%&=#-@++++@@+$     ",
"    $@@.=$$=.@+.$&&&&=&%%%%%$&....&$%%%%%&=&&&&$.+@.=$$=.@@$    ",
"  &.+@.==&%%&@-$$$$$.=******&*&&&&*&******=.$$$$$-@&%%&==.@+.&  ",
" $#@+#===&%%&.+.....#&*****&%******%&*****&#.....+.&%%&===#+@#$ ",
"&+@+@+###.=&$$###@@@=&****&=%******%=&****&=@@@###$$&=.###+@+@+&",
".@.=++@@++#=$$$.#@+@$&&&&..#&******&#..&&&&$@+@#.$$$=#++@@++=.@.",
"+.==-+@+@#.&**%%$#@@$&&=.#.#&******&#.#.=&&$@@#$%%**&.#@+@+-==.+",
"+=.@-#..#+&****%=@+#####.....******.....#####+@=%****&+#..#-@.=+",
"..+++#..@&%***%%#@##@#+@....#&%%%%&#....@+#@##@#%%***%&@..#+++..",
".+@-+##@#%%%&=#@@.$$.#@#.==#+#&%%&#+#==.#@#.$$.@@#=&%%%#@##+-@+.",
"++#@-@@@#=$.@@@@&&%&=.@@#=##@@.==.@@##=#@@.=&%&&@@@@.$=#@@@-@#++",
"+.=#-+@+@@@@.=@+$%*%$.@+@@##@@@..@@@##@@+@.$%*%$+@=.@@@@+@+-#=.+",
"#==$@@+##..$&=@#&%*%&.@#..===.#@@#.===..#@.&%*%&#@=&$..##+@@$==#",
"==$$@-#.$%&&=#@#&&&&$..&%%%%$=.++.=$%%%%&..$&&&&#@#=&&%$.#-@$$==",
"====@+##=&$..##==.##..&*****%=@++@=%*****&..##.==##..$&=##+@====",
"=.#+++##.=@=&=$==.@+#.%****%&.+..+.&%****%.#+@.==$=&=@=.##+++#.=",
".@--+@#.=#=%%%%&$.#@#.$%%%%&$@@..@@$&%%%%$.#@#.$&%%%%=#=.#@+--@.",
"+-+--+@#@.&****%$#####.&&%&&=@.$$.@=&&%&&.#####$%****&.@#@+--+-+",
"+#.++-++@.$%%**&.@##.#.=&&$=#=&&&&=#=$&&=.#.##@.&**%%$.@+++-+.#+",
"..#--@#+@.=&%*&=#.$&&&.#=&.##&&&&&&##.&=#.&&&$.#=&*%&=.@+#@--#..",
".#-@@..@@.=$$...=%%&&&&###@#=&%&&%&=#@###&&&&%%=...$$=.@@..##+#.",
"@+-#...#@.=....#$*%%&&&&.##.$&%**%&$.##.&&&&%%*$#....=.@##@.@@@@",
"-++###.#@@#@@##.$%%*%%&$.#.=$%%**%%$=.#.$&%%*%%$.##@@#@@@@==..@.",
"+@+###.#++@##@@.$&***%&.@@@#=%****%=#@@@.&%***&$.@@##@+++.&***&#",
"-+@####@#@.==#@.$$&%%&.@+@@+.&****&.+@@+@.&%%&$$.@#==.+-@#.&***%",
"@-#+#@@#...==##.===$$=###.@+.=&**&=.+@.###=$$===.##==#-@@+.&****",
"=#@#+++.====.@@@@@@####=$.@+#======#+@.$=####@@@@@@.#@#=@+#$%***",
"&&..##@.==$&.+@@@@@@+#$%&&#+@======@+#&&%$#+@@@@@+##..&&&@@..=%%",
"%&&=.@...==$.+@+@@@+@#$%&%$#+@====@+#$%&%$#@+@@@+.@.=&&%%#.%%%$.",
"%&$.#+@#....##+@@#@#=#=$&&&.@+#==#+@.&&&$=#=#@#@@@+#.$&%=#%***&.",
"#..#@+@@..#@@@@#.##$$##$&$=##++..++##=$&$##$$##.@@+@#..#+&***%$.",
"--+-+@$$#@@-+####@===@#$$.#@@#@++@#@@#.$$#@==@@#$$@+-+--=%***%$$",
"+++@@=&&$=@-@#####===#@#.@@###.##.###@@.#@#@-@=$&&=@@+++=%**%&%*",
".@#.&%%$..=---@@@#.==.####===$=..=$===##@@---=..$%%&.#@.$%%&$&**",
"..#$%%%%=@##@--+####..####.$$$=##=$$$.##@--@##@=%%%%$#..$...=%**",
".##.&%%%%$####@+######++#..===.@@.===..#+@####$%%%%&.##.###.$%**",
"@....=$&&&.=&##@+####@+@.......++......+@##&=.&&&$=....@##.#=&%*",
"+=%%$.#@@#@$%$..@###@+#+#......--......+..$%$@#@@#.$%%=+#####$%*",
"#&***&.#@+@.=$.@-#@+-@#+#.##..-++-..##.-@.$=.@+@#.&***&#@##.#.%*",
".=%**%&=@-++++@@-@++++@+####.+-@@-+.##@-@@++++-@=&%**%=.$$$$..$%",
"&.&%%%&=#-@++++@@+###+##@##.@@+##+@@.#+@@++++@-#=&%%%&.&&&&&....",
"%&=&&&&$.+@.=$$=.@@;;+@@-#++++@@@@++@@@.=$$=.@+.$&&&&=&%%%%%$&..",
"**=.$$$$$-@&%%&==.@+;#++---+++++++++@@.==&%%&@-$$$$$.=******&*&&",
"**&#.....+.&%%&===#+@#.@>>>,,,++++#@+#===&%%&.+.....#&*****&%***",
"**&=@@@###$$&=.###+@+@+;'>,,))))!+@+@+###.=&$$###@@@=&****&=%***",
"&&&$@+@#.$$$=#++@@++=.@;~{,,))]]!@.=++@@++#=$$$.#@+@$&&&&..#&***",
"=&&$@@#$%%**&.#@+@+-==.+~',,))]]+.==-+@+@#.&**%%$#@@$&&=.#.#&***",
"#####+@=%****&+#..#-@.=++',,))]++=.@-#..#+&****%=@+#####.....***",
"@+#@##@#%%***%&@..#+++..+'{,))]+..+++#..@&%***%%#@##@#+@....#&%%",
"#@#.$$.@@#=&%%%#@##+-@+.@~'>,)]@.+@-+##@#%%%&=#@@.$$.#@#.==#+#&%",
"@@.=&%&&@@@@.$=#@@@-@#++.~~'{)).++#@-@@@#=$.@@@@&&%&=.@@#=##@@.=",
"+@.$%*%$+@=.@@@@+@+-#=.+@;;;;;;@+.=#-+@+@@@@.=@+$%*%$.@+@@##@@@.",
"#@.&%*%&#@=&$..##+@@$==#-;;##+#..#+##++##..$&=@#&%*%&.@#..===.#@",
"&..$&&&&#@#=&&%$.#-@$$==@#@.@@@@@@@@.@#.$%&&=#@#&&&&$..&%%%%$=.+",
"*&..##.==##..$&=##+@====@@==..@..@..==@@=&$..##==.##..&*****%=@+",
"*%.#+@.==$=&=@=.##+++#.@+.&***&##&***&.++=@=&=$==.@+#.%****%&.+.",
"%$.#@#.$&%%%%=#=.#@+--+-@#.&***%%***&.#@-+=%%%%&$.#@#.$%%%%&$@@.",
"&.#####$%****&.@#@+--#-@@+.&********&.+@@-#****%$#####.&&%&&=@.$",
"=.#.##@.&**%%$.@++--#@#=@+#$%******%$#+@=#@#%**&.@##.#.=&&$=#=&&"};
