/* XPM */
static char * pikachu_xpm[] = {
"64 64 15 1",
" 	c #B8F078",
".	c #101010",
"+	c #B0F078",
"@	c #686868",
"#	c #C0F080",
"$	c #E8B800",
"%	c #E0F888",
"&	c #F8E800",
"*	c #C08800",
"=	c #805000",
"-	c #F8F878",
";	c #F8F8F8",
">	c #E00000",
",	c #F84848",
"'	c #B00000",
"                                                                ",
"                                                                ",
"                                                                ",
"                                                                ",
"                                                                ",
"                                                                ",
"                   .                                            ",
"                  ...                                           ",
"                  ...                                           ",
"               +++.@..+++++++++                                 ",
"               ++.@@..+++++++++             ...                 ",
"               ++.@@@..++#+++++          ...@@.                 ",
"               ++.@@@$.+#+%###+        ..@@@@..                 ",
"               ++.@@&&.++%%##+%      *$&@@@@..                  ",
"               +++.&&&$.+%%#+%%     *&&&@@@...                  ",
"               +++*&&&$.#%+++%+   *$&&&&$@...                   ",
"               +++*&&&$.+++++++  =&&&&&&&...                    ",
"                   $&$$.**$$$**==&&&&&&&$..                     ",
"                   *$$**-----&&$&&&&&&$$.                       ",
"                    =$--------&&&&&&$$..          **            ",
"                   $&&--------&&&&&$=.          *$-&=           ",
"                  =&&&&-----&$..$&&$=          *-&&&=           ",
"                  *$..&&&&&&&.;..&&$$.        *-&&&$=           ",
"                 *&.;.&&&&&&&..@.&&$$.      *$-&&$$$$=          ",
"                 =&..@&&&&&&&$..$&&$$=     *--&$$$$$$=          ",
"                =$&*.$&&=$&&&&&&&>>$$$.  $$&&&$$$$$$$=          ",
"                .,&&&&$&&&&&*&&&>>>'$$.==&&$$$$$$$$$$=          ",
"                .>$&&&&*''''$&&&>>>'$==-*=$$$$$$$$$$$=          ",
"               = .'&&&&&'',,&&&&>>''=-*&--=$$$$$$$$$$.          ",
"              =-=='&&&&&',,'&&&&&''$=&&&&*=$$$$$$$$=.           ",
"             =-&&$=&&&&&&''&&&&&&&$=&&&&&&.$$$$$$=.             ",
"              *&&$$=&&&&&&&&&&&&&&=&&&&$$.$$$$$=.               ",
"              =$$$$**&&&&&&&&&&&&&&&&&$$$.$$$$=                 ",
"               .$$$*&&&&&&&&&&&&&&&&&$$$.=$$$.                  ",
"                .$$$&&&&&&&&&&&&&&&&$$$.  =$$$.                 ",
"                 .=&&&&&&&&&&&&&&&&$$$$.   =$$$.                ",
"                  *&&&&&&&&&&&&&&&&$$*=  ==$$$$$.               ",
"                 =&&&&&&&&&&&&&&&&&$*$=..&$$$$=.                ",
"                 *&&&&&&&&&&&&&&&&&$$$=&$$$$=.                  ",
"                =&&&&&&&&&&&&&&&&$$$$=$$$$..                    ",
"               ===&&&&&&&&&&&&&&$$$$$.$$$.                      ",
"              =--*=&&&&&&&&&&&&&$$$$$..$$$.                     ",
"              **&*&=&&&&&&&&&&&$$$$$$. .**$.                    ",
"              =$$$$*&&&&&&&&&$$$$$$$$..===*$.                   ",
"               *$$$$=$$&&&&$$$$$$$$$$====...                    ",
"                =$$$=$$$$$$$$$$$$$$$==...                       ",
"                .$$$.$$$$$$$$$$$$$$$..                          ",
"                 =..$$$$$$$$$$$$$$$*.                           ",
"                    ....=*$$$$$$$$$.                            ",
"                         ..=$$$$$=.                             ",
"                           ..**...                              ",
"                           =****.                               ",
"                           =*=**.                               ",
"                           =$*$.                                ",
"                            ...                                 ",
"                                                                ",
"                                                                ",
"                                                       +++++++++",
"                                                       +++#+#+++",
"                                                       ++#+%++++",
"                                                       ++#%%#+++",
"                                                       +++#%%##+",
"                                                       ++++#%##+",
"                                                       ++++++++#"};
